<svg xmlns="http://www.w3.org/2000/svg" xml:space="preserve" width="2000" height="1397" data-id="lg_dVwdTvxWZBys6YZZC3" data-version="1" viewBox="0 0 2000 1397"><g data-padding="20"><g transform="translate(10 11.88)scale(.983)"><rect width="1176" height="1396.68" x="19.868" y="-375.01" fill="none" rx="0" ry="0" transform="translate(399.26 375.17)"/><path fill="#ff5e5e" d="M1152.478 1106.05q-1.24-1.23-4.95-2.47-3.7-1.24-9.89-2.47h-22.24q-2.47 1.23-9.89 1.23-1.24-1.23-4.33-2.47-3.09-1.23-6.8-2.47l-12.36 1.24q-6.17 1.23-9.27.61-3.08-.61-4.32-.61-7.42 0-12.36-4.95v-7.41q-3.71-12.36 1.24-16.07-1.24-1.24-4.95-1.24-1.24-2.47 0-4.32 1.24-1.86 1.24-3.09l1.23-3.71q0-3.71-7.41-8.65 0-4.95 8.65-9.89v-1.24q-4.95-2.47-7.42-6.18-1.23-2.47-2.47-12.36-1.23-9.89-2.47-25.95-8.65-7.42-8.65-19.78 0-3.71 6.18-25.96-3.71-3.7-12.36-4.94-2.47-2.47-1.24-4.94l4.95-14.84q-1.24 0-3.71-6.18-1.24-2.47-2.47-6.18-1.24-3.7-3.71-9.88 1.23-3.71 1.23-16.07l-2.47-2.47q0-2.48-1.85-11.75-1.86-9.27-4.33-22.86-2.47-13.6-4.32-23.49-1.86-9.88-1.86-16.06 0-8.66 3.71-12.36-1.24-2.48-11.12-4.95-14.84 0-28.43 9.89l-6.18 37.08q-1.24 1.24-3.09 2.47-1.86 1.24-4.33 3.71v2.47q0 1.24.62 4.33t1.85 6.8q4.95 0 11.13 4.94l-2.47 14.83q-2.48 8.65 1.23 13.6l-9.89-1.24-2.47 4.95 3.71 4.94q3.71 4.94 3.71 7.42l-8.65 35.84 3.7 14.83q0 3.71-1.23 6.18l-2.47 6.18q1.23 6.18 2.47 14.22 1.23 8.03 2.47 16.68 0 2.47-8.65 11.13l-9.89 12.36q0 4.94 8.65 6.79l8.65 1.86-3.7 58.09-2.48 4.94q-2.47-2.47-9.88-7.41l-7.42 1.23q-3.71 1.24-6.18 1.24l-18.54-6.18-4.94 2.47q-4.95 2.47-6.18 2.47-16.07 1.24-22.25 0-2.47-1.23-7.42-3.7-4.94-2.48-11.12-6.18h-3.71q-4.94 8.65-9.89 8.65l-14.83-3.71q-1.24 1.24-3.71 1.24t-4.94 1.23q-9.89 0-9.89-8.65 3.71-3.71 8.65-12.36-1.23-2.47-1.23-13.6 0-2.47.61-5.56.62-3.09 1.86-8.03l2.47-9.89v-4.94q0-3.71-1.24-9.89l-2.47-14.83q1.24-58.1 7.42-90.23l3.71-11.13q0-3.7-1.24-7.41l-2.47-7.42q0-1.23 2.47-6.18-2.47-3.71 0-9.89l4.94-9.88v-3.71q0-2.47-1.23-7.42l-2.47-11.12q0-1.24 3.7-16.07 3.71-14.83 4.95-16.07-4.95-7.41-6.18-14.83l4.94-4.94q2.47-2.48 4.95-6.18 0-7.42-7.42-16.07l7.42-128.55q2.47-2.47 5.56-6.18 3.09-3.7 5.56-7.41-1.24-1.24-4.94-1.24l-3.71-22.25q0-11.12 1.23-16.06l-1.23-3.71q1.23-1.24 3.71-6.18v-8.65q0-2.48-.62-4.95t-.62-3.71q3.71-3.7 7.42-11.12l-7.42-18.54v-14.83q1.24-3.71 3.71-8.65 2.47-4.95 4.94-11.13 0-1.23-.62-1.85-.61-.62-.61-1.86 0-3.7 1.85-7.41t3.09-8.65q-3.71-3.71-7.42-11.13l1.24-16.07q0-4.94 12.36-17.3 11.12-11.12 9.89-18.54l-25.96-9.89q2.47-6.18 7.42-7.41l-2.47-33.38q-3.71-6.18-3.71-8.65 12.36-4.94 16.07-3.71 2.47 0 8.65 4.95 4.94 4.94 9.89 4.94 2.47-2.47 6.79-4.94 4.33-2.47 9.27-3.71 2.48 2.47 8.04 5.56t11.74 6.8l1.24-4.94 8.65-2.48q6.18-3.7 7.41-2.47 2.48 0 11.13 7.42 8.65 8.65 11.12 8.65t11.13-6.18q6.17-2.47 10.5-3.71 4.33-1.23 6.8 0l4.94 1.24 4.95-2.47q2.47-2.48 4.94-2.48 4.95 0 13.6 12.36 2.47 0 6.18-4.94 3.71-3.71 4.94-2.47l19.78 8.65q2.47 0 4.94-.62t4.95-1.85l6.18 7.41 25.95 3.71 2.47 2.47q1.24 1.24 3.71 2.48 18.54 1.23 30.9 3.7l22.25 14.84 2.47 4.94v1.24q0 8.65 12.36 16.06l19.78 11.13v11.12l6.18 13.6q-1.24 7.41-3.71 15.45-2.47 8.03-4.94 16.68 0 1.24 1.23 1.24l6.18-6.18q4.95-4.94 8.65-4.94l2.47 1.23q1.24 1.24 2.48 7.42 1.23 6.18 3.71 17.3l3.7 6.18v12.36l-3.7 3.71q2.47 11.12 1.23 12.36-3.71 1.24-7.42 7.42l2.48 2.47q1.23 1.23 8.65 1.23v2.48q0 2.47-2.47 12.36h-1.24q-1.23 0-3.71 8.65-2.47 8.65 0 8.65 3.71 0 6.18-2.47 1.24-2.47 1.24-6.18v-1.24l-1.24 18.54q-1.23 1.24-3.7 6.18 0 4.95-.62 13.6t-1.86 19.77l-6.18 11.13q-2.47 8.65-3.7 19.77l1.23 8.66q-1.23 1.23-1.23 2.47 0 1.23-1.24 3.71-1.24 16.06-11.12 23.48v4.94q0 2.48-.62 5.57t-1.86 6.79q-4.94 3.71-29.66 40.79l-11.12 4.95q-7.42 3.7-9.89 11.12 3.7 6.18 6.18 16.07 0 8.65-6.18 8.65-7.42 0-7.42 1.24 0 3.7 8.65 3.7 6.18 0 6.18 7.42l-1.23 14.83q-22.25 3.71-22.25 7.42 0 2.47 25.96 4.94-1.24 1.24-3.71 11.13l6.18 3.7 7.41 30.9 4.95 8.66q-8.66 6.18-14.83 17.3l2.47 4.94q6.18 3.71 11.12 12.36 2.47 3.71 3.71 12.36l8.65 6.18v6.18q0 3.71 1.24 7.42-1.24 2.47-1.24 12.36 3.71 3.71 3.71 9.89l2.47 27.19q1.24 1.24 2.47 4.94 1.24 3.71 2.47 9.89-6.17 6.18-6.17 11.13-1.24 7.41 4.94 7.41 1.23 0 6.18-2.47l1.24 21.01 12.36 28.43q1.23 1.24 1.23 7.42 0 13.59-9.89 13.59-11.12 0-14.83-3.71-3.71-4.94-4.94-4.94-6.18 4.94-18.54 8.65m-122.37-706.99q1.24-2.47-1.23-4.94-2.47-2.48-4.95 0 0 2.47 6.18 4.94m-139.66 61.8 4.94-3.71q0-1.23-4.94 0-1.24 0 0 3.71m14.83 9.89q3.71 1.23 7.41-3.71-2.47-2.47-3.7-2.47-3.71 0-3.71 6.18m228.66 9.89q3.7 1.23 7.41-3.71-1.23-1.24-3.71-1.24-3.7 0-3.7 4.95m-112.48 202.7h2.47l12.36-8.65 16.07-2.47 1.24-4.95-2.48-8.65q1.24-1.24 4.33-3.71t8.04-6.18q1.23-4.94 7.41-8.65 0-12.36 3.71-35.84 0-4.95.62-12.36.62-7.42 1.85-16.07 1.24-2.47 2.47-5.56 1.24-3.09 2.47-8.04l-2.47-4.94-2.47-4.95q-1.23-3.7-1.23-9.88 0-3.71.61-8.66.62-4.94 1.86-11.12l1.23-16.07v-2.47q0-12.36-23.48-16.07l-16.07-2.47-13.59-2.47q-4.95 0-10.51.62-5.56.61-11.74 1.85-7.42 2.47-13.6 11.12l-1.23 3.71q-6.19 6.18-8.66 12.36 0 1.24 1.86 4.33 1.85 3.09 3.09 9.27l4.94 13.59q-2.47 2.48-7.42 9.89-1.23 4.95-3.08 9.89-1.86 4.94-4.33 11.12l6.18 8.66 6.18 9.88q-1.24 4.95-3.09 9.27-1.86 4.33-3.09 10.51v17.3l-1.24 21.02v3.7q0 11.13 6.18 17.31 2.48 3.71 7.42 7.41 1.23 0 6.18-3.7 3.71-3.71 4.94-3.71 3.71 0 16.07 14.83m93.94-117.42q7.41 0 19.77-18.54-3.7-3.71-4.94-7.42l-11.12-3.7q-4.95 0-12.36 7.41 0 9.89 8.65 22.25m-223.72 23.48q3.71 1.24 7.42-3.7-2.48-2.48-3.71-2.48-3.71 0-3.71 6.18m32.14 119.9q1.23-1.24 1.23-3.71 0-3.71-4.94-3.71-1.24 3.71 3.71 7.42m90.23-2.48q2.47 1.24 7.41-3.7-1.23-1.24-4.94-1.24t-2.47 4.94m95.17 33.38-2.47 6.18 3.7-2.48q0-2.47-1.23-3.7m-148.32 29.66q1.23-2.47-1.24-4.94-1.23-2.48-4.94 1.23 0 3.71 6.18 3.71m95.17 13.6q3.71 1.23 6.18-1.24 1.24-1.24-1.24-6.18-2.47 0-4.94 7.42m56.86 79.1q1.23-2.47-1.24-4.94-1.24-1.24-6.18 1.23 0 3.71 7.42 3.71m-39.56 96.41q2.48 0 7.42-3.71 4.94-2.47 6.18-2.47h1.24v-14.83l-14.84-3.71q0 6.18 1.24 7.41l-1.24 8.66q-1.23 2.47-1.23 7.41 0 1.24 1.23 1.24m-205.17 16.07q7.41-3.71 7.41-7.42 0-4.94-8.65-8.65l-9.89-4.95-2.47 2.48q2.47 4.94 6.18 9.27 3.71 4.32 7.42 9.27m-6.18 70.45q1.23-2.47-1.24-4.95-1.23-2.47-4.94 1.24 0 3.71 6.18 3.71m30.9 1.23v-6.18h-3.71q1.24 1.24 3.71 6.18"/></g><path fill="transparent" stroke="transparent" d="M412 0h1176v1397H412z"/></g></svg>