<svg xmlns="http://www.w3.org/2000/svg" xml:space="preserve" width="1500" height="1500" data-id="lg_dVwdTvxWZBys6YZZC3" data-version="1" viewBox="0 0 1500 1500"><path fill="#46484d" stroke="transparent" d="M0 0h1500v1500H0z"/><g data-padding="20"><g transform="translate(30.156 47.166)scale(.92074)"><rect width="374" height="1028.3" x="195.228" y="-150.397" fill="none" rx="0" ry="0" transform="translate(399.58 399.58)"/><path fill="#ff5e5e" d="M888.698 1063.273q-.91-.91-3.64-1.82t-7.28-1.82h-16.38q-1.82.91-7.28.91-.91-.91-3.18-1.82-2.28-.91-5.01-1.82l-9.1.91q-4.55.91-6.82.45-2.28-.45-3.19-.45-5.46 0-9.1-3.64v-5.46q-2.73-9.1.91-11.83-.91-.91-3.64-.91-.91-1.82 0-3.19.91-1.36.91-2.27l.91-2.73q0-2.73-5.46-6.37 0-3.64 6.37-7.28v-.91q-3.64-1.82-5.46-4.55-.91-1.82-1.82-9.1t-1.82-19.11q-6.37-5.46-6.37-14.56 0-2.73 4.55-19.11-2.73-2.73-9.1-3.64-1.82-1.82-.91-3.64l3.64-10.92q-.91 0-2.73-4.55-.91-1.82-1.82-4.55t-2.73-7.28q.91-2.73.91-11.83l-1.82-1.82q0-1.82-1.36-8.65-1.37-6.82-3.19-16.83t-3.18-17.29q-1.37-7.28-1.37-11.83 0-6.37 2.73-9.1-.91-1.82-8.19-3.64-10.92 0-20.93 7.28l-4.55 27.3q-.91.91-2.27 1.82-1.37.91-3.19 2.73v1.82q0 .91.46 3.18.45 2.28 1.36 5.01 3.64 0 8.19 3.64l-1.82 10.92q-1.82 6.37.91 10.01l-7.28-.91-1.82 3.64 2.73 3.64q2.73 3.64 2.73 5.46l-6.37 26.39 2.73 10.92q0 2.73-.91 4.55l-1.82 4.55q.91 4.55 1.82 10.46.91 5.92 1.82 12.29 0 1.82-6.37 8.19l-7.28 9.1q0 3.64 6.37 5l6.37 1.37-2.73 42.77-1.82 3.64q-1.82-1.82-7.28-5.46l-5.46.91q-2.73.91-4.55.91l-13.65-4.55-3.64 1.82q-3.64 1.82-4.55 1.82-11.83.91-16.38 0l-5.46-2.73q-3.64-1.82-8.19-4.55h-2.73q-3.64 6.37-7.28 6.37l-10.92-2.73q-.91.91-2.73.91t-3.64.91q-7.28 0-7.28-6.37 2.73-2.73 6.37-9.1-.91-1.82-.91-10.01 0-1.82.46-4.1.45-2.27 1.36-5.91l1.82-7.28v-3.64q0-2.73-.91-7.28l-1.82-10.92q.91-42.77 5.46-66.43l2.73-8.19q0-2.73-.91-5.46l-1.82-5.46q0-.91 1.82-4.55-1.82-2.73 0-7.28l3.64-7.28v-2.73q0-1.82-.91-5.46l-1.82-8.19q0-.91 2.73-11.83t3.64-11.83q-3.64-5.46-4.55-10.92l3.64-3.64q1.82-1.82 3.64-4.55 0-5.46-5.46-11.83l5.46-94.64q1.82-1.82 4.1-4.55 2.27-2.73 4.09-5.46-.91-.91-3.64-.91l-2.73-16.38q0-8.19.91-11.83l-.91-2.73q.91-.91 2.73-4.55v-6.37q0-1.82-.45-3.64-.46-1.82-.46-2.73 2.73-2.73 5.46-8.19l-5.46-13.65v-10.92q.91-2.73 2.73-6.37t3.64-8.19q0-.91-.45-1.37-.46-.45-.46-1.36 0-2.73 1.37-5.46 1.36-2.73 2.27-6.37-2.73-2.73-5.46-8.19l.91-11.83q0-3.64 9.1-12.74 8.19-8.19 7.28-13.65l-19.11-7.28q1.82-4.55 5.46-5.46l-1.82-24.57q-2.73-4.55-2.73-6.37 9.1-3.64 11.83-2.73 1.82 0 6.37 3.64 3.64 3.64 7.28 3.64 1.82-1.82 5.01-3.64 3.18-1.82 6.82-2.73 1.82 1.82 5.92 4.09 4.09 2.28 8.64 5.01l.91-3.64 6.37-1.82q4.55-2.73 5.46-1.82 1.82 0 8.19 5.46 6.37 6.37 8.19 6.37t8.19-4.55q4.55-1.82 7.74-2.73 3.18-.91 5 0l3.64.91 3.64-1.82q1.82-1.82 3.64-1.82 3.64 0 10.01 9.1 1.82 0 4.55-3.64 2.73-2.73 3.64-1.82l14.56 6.37q1.82 0 3.64-.46 1.82-.45 3.64-1.36l4.55 5.46 19.11 2.73 1.82 1.82q.91.91 2.73 1.82 13.65.91 22.75 2.73l16.38 10.92 1.82 3.64v.91q0 6.37 9.1 11.83l14.56 8.19v8.19l4.55 10.01q-.91 5.46-2.73 11.37-1.82 5.92-3.64 12.29 0 .91.91.91l4.55-4.55q3.64-3.64 6.37-3.64l1.82.91q.91.91 1.82 5.46t2.73 12.74l2.73 4.55v9.1l-2.73 2.73q1.82 8.19.91 9.1-2.73.91-5.46 5.46l1.82 1.82q.91.91 6.37.91v1.82q0 1.82-1.82 9.1h-.91q-.91 0-2.73 6.37t0 6.37q2.73 0 4.55-1.82.91-1.82.91-4.55v-.91l-.91 13.65q-.91.91-2.73 4.55 0 3.64-.45 10.01-.46 6.37-1.37 14.56l-4.55 8.19q-1.82 6.37-2.73 14.56l.91 6.37q-.91.91-.91 1.82t-.91 2.73q-.91 11.83-8.19 17.29v3.64q0 1.82-.45 4.09-.46 2.28-1.37 5.01-3.64 2.73-21.84 30.03l-8.19 3.64q-5.46 2.73-7.28 8.19 2.73 4.55 4.55 11.83 0 6.37-4.55 6.37-5.46 0-5.46.91 0 2.73 6.37 2.73 4.55 0 4.55 5.46l-.91 10.92q-16.38 2.73-16.38 5.46 0 1.82 19.11 3.64-.91.91-2.73 8.19l4.55 2.73 5.46 22.75 3.64 6.37q-6.37 4.55-10.92 12.74l1.82 3.64q4.55 2.73 8.19 9.1 1.82 2.73 2.73 9.1l6.37 4.55v4.55q0 2.73.91 5.46-.91 1.82-.91 9.1 2.73 2.73 2.73 7.28l1.82 20.02q.91.91 1.82 3.64t1.82 7.28q-4.55 4.55-4.55 8.19-.91 5.46 3.64 5.46.91 0 4.55-1.82l.91 15.47 9.1 20.93q.91.91.91 5.46 0 10.01-7.28 10.01-8.19 0-10.92-2.73-2.73-3.64-3.64-3.64-4.55 3.64-13.65 6.37m-90.09-520.52q.91-1.82-.91-3.64t-3.64 0q0 1.82 4.55 3.64m-102.83 45.5 3.64-2.73q0-.91-3.64 0-.91 0 0 2.73m10.92 7.28q2.73.91 5.46-2.73-1.82-1.82-2.73-1.82-2.73 0-2.73 4.55m168.35 7.28q2.73.91 5.46-2.73-.91-.91-2.73-.91-2.73 0-2.73 3.64m-82.81 149.24h1.82l9.1-6.37 11.83-1.82.91-3.64-1.82-6.37q.91-.91 3.19-2.73 2.27-1.82 5.91-4.55.91-3.64 5.46-6.37 0-9.1 2.73-26.39 0-3.64.46-9.1.45-5.46 1.36-11.83.91-1.82 1.82-4.1.91-2.27 1.82-5.91l-1.82-3.64-1.82-3.64q-.91-2.73-.91-7.28 0-2.73.45-6.37.46-3.64 1.37-8.19l.91-11.83v-1.82q0-9.1-17.29-11.83l-11.83-1.82-10.01-1.82q-3.64 0-7.73.45-4.1.46-8.65 1.37-5.46 1.82-10.01 8.19l-.91 2.73q-4.55 4.55-6.37 9.1 0 .91 1.37 3.18 1.36 2.28 2.27 6.83l3.64 10.01q-1.82 1.82-5.46 7.28-.91 3.64-2.27 7.28-1.37 3.64-3.19 8.19l4.55 6.37 4.55 7.28q-.91 3.64-2.27 6.82-1.37 3.19-2.28 7.74v12.74l-.91 15.47v2.73q0 8.19 4.55 12.74 1.82 2.73 5.46 5.46.91 0 4.55-2.73 2.73-2.73 3.64-2.73 2.73 0 11.83 10.92m69.16-86.45q5.46 0 14.56-13.65-2.73-2.73-3.64-5.46l-8.19-2.73q-3.64 0-9.1 5.46 0 7.28 6.37 16.38m-164.71 17.29q2.73.91 5.46-2.73-1.82-1.82-2.73-1.82-2.73 0-2.73 4.55m23.66 88.27q.91-.91.91-2.73 0-2.73-3.64-2.73-.91 2.73 2.73 5.46m66.43-1.82q1.82.91 5.46-2.73-.91-.91-3.64-.91t-1.82 3.64m70.07 24.57-1.82 4.55 2.73-1.82q0-1.82-.91-2.73m-109.2 21.84q.91-1.82-.91-3.64-.91-1.82-3.64.91 0 2.73 4.55 2.73m70.07 10.01q2.73.91 4.55-.91.91-.91-.91-4.55-1.82 0-3.64 5.46m41.86 58.24q.91-1.82-.91-3.64-.91-.91-4.55.91 0 2.73 5.46 2.73m-29.12 70.98q1.82 0 5.46-2.73 3.64-1.82 4.55-1.82h.91v-10.92l-10.92-2.73q0 4.55.91 5.46l-.91 6.37q-.91 1.82-.91 5.46 0 .91.91.91m-151.06 11.83q5.46-2.73 5.46-5.46 0-3.64-6.37-6.37l-7.28-3.64-1.82 1.82q1.82 3.64 4.55 6.82 2.73 3.19 5.46 6.83m-4.55 51.87q.91-1.82-.91-3.64-.91-1.82-3.64.91 0 2.73 4.55 2.73m22.75.91v-4.55h-2.73q.91.91 2.73 4.55"/></g><path fill="transparent" stroke="transparent" stroke-width=".973" d="M568.093 250h363.814v1000H568.093z"/></g></svg>