<svg xmlns="http://www.w3.org/2000/svg" xml:space="preserve" width="2000" height="1035" data-id="lg_cPxdn2URkApxeJ7kAN" data-version="1" viewBox="0 0 2000 1035"><g data-padding="20"><g transform="translate(10 13.019)scale(.97484)"><path fill="#915eff" d="M1015.548 127.85a397.59 397.59 0 1 0 0 795.18 397.59 397.59 0 1 0 0-795.18"/><rect width="607" height="1035.08" x="312.048" y="-392.1" fill="none" rx="0" ry="0" transform="translate(392.06 392.06)"/><path fill="#fff" d="M897.838 813.19h-86.1V396.41q0-110.83 54.5-172.21 54.5-61.37 155.26-61.37 101.68 0 156.18 49.47 54.5 49.46 54.5 139.23 0 57.71-27.48 94.35t-93.43 57.7v3.67q68.7 26.56 92.06 75.57 23.36 49 23.36 161.67v68.7h-86.11V695.94q0-69.61-39.38-108.54-39.39-38.93-113.59-38.93h-49.46v-80.61h52.21q87.94 0 121.83-35.72 33.89-35.73 33.89-85.19 0-46.72-33.43-75.11-33.44-28.4-88.4-28.4-63.2 0-94.8 35.72-31.61 35.73-31.61 117.25Z"/></g><path fill="transparent" stroke="transparent" d="M602.5 0h795v1035h-795z"/></g></svg>